<svg xmlns="http://www.w3.org/2000/svg" width="110.5" height="35" viewBox="0 0 110.5 35"><rect class="svg__rect" x="0" y="0" width="29.47" height="35" fill="#2ECC71"/><rect class="svg__rect" x="27.47" y="0" width="83.03" height="35" fill="#212121"/><path class="svg__text" d="M15.78 22L14.31 22L14.31 13.47L15.78 13.47L15.78 22Z" fill="#FAFAFA"/><path class="svg__text" d="M41.07 21.24L41.07 21.24L41.85 19.49Q42.41 19.86 43.16 20.09Q43.90 20.32 44.62 20.32L44.62 20.32Q45.99 20.32 45.99 19.64L45.99 19.64Q45.99 19.28 45.60 19.11Q45.21 18.93 44.35 18.74L44.35 18.74Q43.40 18.53 42.76 18.30Q42.13 18.06 41.67 17.55Q41.22 17.03 41.22 16.16L41.22 16.16Q41.22 15.39 41.64 14.77Q42.06 14.15 42.89 13.79Q43.73 13.43 44.93 13.43L44.93 13.43Q45.76 13.43 46.57 13.62Q47.37 13.80 47.99 14.17L47.99 14.17L47.25 15.93Q46.05 15.28 44.92 15.28L44.92 15.28Q44.21 15.28 43.89 15.49Q43.57 15.70 43.57 16.04L43.57 16.04Q43.57 16.37 43.95 16.54Q44.34 16.71 45.19 16.89L45.19 16.89Q46.15 17.10 46.78 17.33Q47.41 17.56 47.87 18.07Q48.33 18.58 48.33 19.46L48.33 19.46Q48.33 20.21 47.91 20.83Q47.49 21.44 46.65 21.80Q45.81 22.17 44.61 22.17L44.61 22.17Q43.59 22.17 42.63 21.92Q41.67 21.67 41.07 21.24ZM55.29 22L52.91 22L52.91 13.60L56.75 13.60Q57.89 13.60 58.73 13.98Q59.57 14.35 60.03 15.06Q60.48 15.76 60.48 16.71L60.48 16.71Q60.48 17.66 60.03 18.35Q59.57 19.05 58.73 19.42Q57.89 19.80 56.75 19.80L56.75 19.80L55.29 19.80L55.29 22ZM55.29 15.47L55.29 17.93L56.61 17.93Q57.34 17.93 57.71 17.61Q58.08 17.29 58.08 16.71L58.08 16.71Q58.08 16.12 57.71 15.80Q57.34 15.47 56.61 15.47L56.61 15.47L55.29 15.47ZM71.98 22L65.24 22L65.24 13.60L71.83 13.60L71.83 15.44L67.59 15.44L67.59 16.85L71.32 16.85L71.32 18.63L67.59 18.63L67.59 20.17L71.98 20.17L71.98 22ZM78.20 22L75.78 22L79.49 13.60L81.83 13.60L85.54 22L83.08 22L82.42 20.37L78.86 20.37L78.20 22ZM80.64 15.93L79.56 18.61L81.72 18.61L80.64 15.93ZM92.05 22L89.70 22L89.70 13.60L92.05 13.60L92.05 17.09L95.31 13.60L97.92 13.60L94.49 17.32L98.10 22L95.34 22L92.94 18.95L92.05 19.90L92.05 22Z" fill="#FAFAFA" x="40.47"/></svg>