<svg xmlns="http://www.w3.org/2000/svg" width="122.57" height="35" viewBox="0 0 122.57 35"><rect class="svg__rect" x="0" y="0" width="47.88" height="35" fill="#2ECC71"/><rect class="svg__rect" x="45.88" y="0" width="76.69" height="35" fill="#212121"/><path class="svg__text" d="M15.69 22L14.22 22L14.22 13.47L16.14 13.47L18.60 20.01L21.06 13.47L22.97 13.47L22.97 22L21.49 22L21.49 19.19L21.64 15.43L19.12 22L18.06 22L15.55 15.43L15.69 19.19L15.69 22ZM29.75 18.86L26.89 13.47L28.53 13.47L30.49 17.51L32.46 13.47L34.10 13.47L31.24 18.86L31.24 22L29.75 22L29.75 18.86Z" fill="#FAFAFA"/><path class="svg__text" d="M66.45 22L60.07 22L60.07 13.60L62.45 13.60L62.45 20.11L66.45 20.11L66.45 22ZM73.25 22L70.87 22L70.87 13.60L73.25 13.60L73.25 22ZM80.76 22L78.43 22L78.43 13.60L80.38 13.60L84.09 18.07L84.09 13.60L86.42 13.60L86.42 22L84.47 22L80.76 17.52L80.76 22ZM93.94 22L91.58 22L91.58 13.60L93.94 13.60L93.94 17.09L97.19 13.60L99.80 13.60L96.37 17.32L99.98 22L97.22 22L94.82 18.95L93.94 19.90L93.94 22ZM103.50 21.24L103.50 21.24L104.28 19.49Q104.85 19.86 105.59 20.09Q106.33 20.32 107.05 20.32L107.05 20.32Q108.42 20.32 108.43 19.64L108.43 19.64Q108.43 19.28 108.04 19.11Q107.65 18.93 106.78 18.74L106.78 18.74Q105.83 18.53 105.19 18.30Q104.56 18.06 104.10 17.55Q103.65 17.03 103.65 16.16L103.65 16.16Q103.65 15.39 104.07 14.77Q104.49 14.15 105.32 13.79Q106.16 13.43 107.36 13.43L107.36 13.43Q108.19 13.43 109.00 13.62Q109.80 13.80 110.42 14.17L110.42 14.17L109.69 15.93Q108.48 15.28 107.35 15.28L107.35 15.28Q106.64 15.28 106.32 15.49Q106.00 15.70 106.00 16.04L106.00 16.04Q106.00 16.37 106.38 16.54Q106.77 16.71 107.62 16.89L107.62 16.89Q108.58 17.10 109.21 17.33Q109.84 17.56 110.30 18.07Q110.76 18.58 110.76 19.46L110.76 19.46Q110.76 20.21 110.34 20.83Q109.93 21.44 109.08 21.80Q108.24 22.17 107.04 22.17L107.04 22.17Q106.02 22.17 105.06 21.92Q104.10 21.67 103.50 21.24Z" fill="#FAFAFA" x="58.88"/></svg>