<svg xmlns="http://www.w3.org/2000/svg" width="132.06" height="35" viewBox="0 0 132.06 35"><rect class="svg__rect" x="0" y="0" width="47.88" height="35" fill="#2ECC71"/><rect class="svg__rect" x="45.88" y="0" width="86.18" height="35" fill="#212121"/><path class="svg__text" d="M15.69 22L14.22 22L14.22 13.47L16.14 13.47L18.60 20.01L21.06 13.47L22.97 13.47L22.97 22L21.49 22L21.49 19.19L21.64 15.43L19.12 22L18.06 22L15.55 15.43L15.69 19.19L15.69 22ZM29.75 18.86L26.89 13.47L28.53 13.47L30.49 17.51L32.46 13.47L34.10 13.47L31.24 18.86L31.24 22L29.75 22L29.75 18.86Z" fill="#FAFAFA"/><path class="svg__text" d="M59.48 21.24L59.48 21.24L60.26 19.49Q60.82 19.86 61.57 20.09Q62.31 20.32 63.03 20.32L63.03 20.32Q64.40 20.32 64.40 19.64L64.40 19.64Q64.40 19.28 64.01 19.11Q63.62 18.93 62.76 18.74L62.76 18.74Q61.81 18.53 61.17 18.30Q60.54 18.06 60.08 17.55Q59.63 17.03 59.63 16.16L59.63 16.16Q59.63 15.39 60.05 14.77Q60.47 14.15 61.30 13.79Q62.14 13.43 63.34 13.43L63.34 13.43Q64.17 13.43 64.98 13.62Q65.78 13.80 66.40 14.17L66.40 14.17L65.66 15.93Q64.46 15.28 63.33 15.28L63.33 15.28Q62.62 15.28 62.30 15.49Q61.98 15.70 61.98 16.04L61.98 16.04Q61.98 16.37 62.36 16.54Q62.75 16.71 63.60 16.89L63.60 16.89Q64.56 17.10 65.19 17.33Q65.82 17.56 66.28 18.07Q66.74 18.58 66.74 19.46L66.74 19.46Q66.74 20.21 66.32 20.83Q65.90 21.44 65.06 21.80Q64.22 22.17 63.02 22.17L63.02 22.17Q62.00 22.17 61.04 21.92Q60.08 21.67 59.48 21.24ZM73.67 22L71.32 22L71.32 13.60L73.67 13.60L73.67 17.09L76.93 13.60L79.54 13.60L76.11 17.32L79.72 22L76.96 22L74.56 18.95L73.67 19.90L73.67 22ZM86.21 22L83.83 22L83.83 13.60L86.21 13.60L86.21 22ZM97.77 22L91.38 22L91.38 13.60L93.76 13.60L93.76 20.11L97.77 20.11L97.77 22ZM108.57 22L102.19 22L102.19 13.60L104.56 13.60L104.56 20.11L108.57 20.11L108.57 22ZM112.40 21.24L112.40 21.24L113.18 19.49Q113.75 19.86 114.49 20.09Q115.23 20.32 115.95 20.32L115.95 20.32Q117.32 20.32 117.33 19.64L117.33 19.64Q117.33 19.28 116.94 19.11Q116.55 18.93 115.68 18.74L115.68 18.74Q114.73 18.53 114.09 18.30Q113.46 18.06 113.00 17.55Q112.55 17.03 112.55 16.16L112.55 16.16Q112.55 15.39 112.97 14.77Q113.39 14.15 114.22 13.79Q115.06 13.43 116.27 13.43L116.27 13.43Q117.09 13.43 117.90 13.62Q118.70 13.80 119.32 14.17L119.32 14.17L118.59 15.93Q117.38 15.28 116.25 15.28L116.25 15.28Q115.54 15.28 115.22 15.49Q114.90 15.70 114.90 16.04L114.90 16.04Q114.90 16.37 115.28 16.54Q115.67 16.71 116.52 16.89L116.52 16.89Q117.48 17.10 118.11 17.33Q118.74 17.56 119.20 18.07Q119.66 18.58 119.66 19.46L119.66 19.46Q119.66 20.21 119.24 20.83Q118.83 21.44 117.98 21.80Q117.14 22.17 115.94 22.17L115.94 22.17Q114.92 22.17 113.96 21.92Q113.00 21.67 112.40 21.24Z" fill="#FAFAFA" x="58.88"/></svg>